<?xml version="1.0" encoding="UTF-8" standalone="no"?>
<!-- Created with Inkscape (http://www.inkscape.org/) -->

<svg
   xmlns:dc="http://purl.org/dc/elements/1.1/"
   xmlns:cc="http://creativecommons.org/ns#"
   xmlns:rdf="http://www.w3.org/1999/02/22-rdf-syntax-ns#"
   xmlns:svg="http://www.w3.org/2000/svg"
   xmlns="http://www.w3.org/2000/svg"
   xmlns:sodipodi="http://sodipodi.sourceforge.net/DTD/sodipodi-0.dtd"
   xmlns:inkscape="http://www.inkscape.org/namespaces/inkscape"
   width="256"
   height="256"
   id="svg4012"
   version="1.1"
   inkscape:version="0.48.4 r9939"
   sodipodi:docname="cheese.svg">
  <defs
     id="defs4014" />
  <sodipodi:namedview
     id="base"
     pagecolor="#ffffff"
     bordercolor="#000000"
     borderopacity="1"
     inkscape:pageopacity="0"
     inkscape:pageshadow="2"
     inkscape:zoom="1.7285156"
     inkscape:cx="111.0529"
     inkscape:cy="126.39542"
     inkscape:document-units="px"
     inkscape:current-layer="g3893"
     showgrid="false"
     borderlayer="true"
     inkscape:window-width="1364"
     inkscape:window-height="747"
     inkscape:window-x="0"
     inkscape:window-y="19"
     inkscape:window-maximized="1">
    <inkscape:grid
       type="xygrid"
       id="grid4020"
       empspacing="4"
       visible="true"
       enabled="true"
       snapvisiblegridlinesonly="true"
       spacingx="2px"
       spacingy="2px"
       dotted="false" />
    <inkscape:grid
       type="xygrid"
       id="grid3791"
       empspacing="4"
       visible="true"
       enabled="true"
       snapvisiblegridlinesonly="true"
       spacingx="32px"
       spacingy="32px"
       color="#ff0000"
       opacity="1"
       empcolor="#fff800"
       empopacity="1" />
  </sodipodi:namedview>
  <metadata
     id="metadata4017">
    <rdf:RDF>
      <cc:Work
         rdf:about="">
        <dc:format>image/svg+xml</dc:format>
        <dc:type
           rdf:resource="http://purl.org/dc/dcmitype/StillImage" />
        <dc:title />
      </cc:Work>
    </rdf:RDF>
  </metadata>
  <g
     inkscape:groupmode="layer"
     id="layer4"
     inkscape:label="anpanman">
    <g
       id="g3916"
       transform="matrix(0.92532935,0,0,0.92532935,9.5578385,0.703352)">
      <path
         sodipodi:nodetypes="cccc"
         inkscape:connector-curvature="0"
         id="path3823"
         d="M 118,70 C 120,50 92,10 64,34 c -4,4 0,18 6,14 10,-6 30,-2 34.98049,24.409083"
         style="color:#000000;fill:#8c6c27;fill-opacity:1;fill-rule:nonzero;stroke:#000000;stroke-width:1.53120267;stroke-linecap:butt;stroke-linejoin:miter;stroke-miterlimit:4;stroke-opacity:1;stroke-dasharray:none;stroke-dashoffset:0;marker:none;visibility:visible;display:inline;overflow:visible;enable-background:accumulate" />
      <path
         style="color:#000000;fill:#8c6c27;fill-opacity:1;fill-rule:nonzero;stroke:#000000;stroke-width:1.53120267;stroke-linecap:butt;stroke-linejoin:miter;stroke-miterlimit:4;stroke-opacity:1;stroke-dasharray:none;stroke-dashoffset:0;marker:none;visibility:visible;display:inline;overflow:visible;enable-background:accumulate"
         d="m 140.49102,70 c -2,-20 26,-60 54,-36 4,4 0,18 -6,14 -10,-6 -30,-2 -34.98049,24.409083"
         id="path3897"
         inkscape:connector-curvature="0"
         sodipodi:nodetypes="cccc" />
      <path
         sodipodi:nodetypes="ccccc"
         inkscape:connector-curvature="0"
         id="path4681"
         d="M 189.1649,162.29796 C 224,208 184,248 128,249.71248 72,248 32,208 66.835098,162.29796 56,104 80,64 128,64.892655 176,64 200,104 189.1649,162.29796 z"
         style="color:#000000;fill:#8c6c27;fill-opacity:1;fill-rule:nonzero;stroke:#000000;stroke-width:1.53120267;stroke-linecap:butt;stroke-linejoin:miter;stroke-miterlimit:4;stroke-opacity:1;stroke-dasharray:none;stroke-dashoffset:0;marker:none;visibility:visible;display:inline;overflow:visible;enable-background:accumulate" />
      <path
         sodipodi:nodetypes="ccc"
         inkscape:connector-curvature="0"
         id="path4679"
         d="m 93.179158,176.83944 c 0,47.82559 69.641682,47.82559 69.641682,0 -14.92321,4.78256 -54.71847,4.78256 -69.641682,0 z"
         style="fill:#b55058;fill-opacity:1;stroke:#000000;stroke-width:2;stroke-linecap:round;stroke-linejoin:round;stroke-miterlimit:4;stroke-opacity:1;stroke-dasharray:none" />
      <g
         transform="matrix(1.394053,0,0,1.275199,-50.438783,-71.92082)"
         id="g3893">
        <path
           sodipodi:type="arc"
           style="color:#000000;fill:#201000;fill-opacity:1;fill-rule:nonzero;stroke:#000000;stroke-width:1.46390998;stroke-linecap:round;stroke-linejoin:round;stroke-miterlimit:4;stroke-opacity:1;stroke-dasharray:none;stroke-dashoffset:0;marker:none;visibility:visible;display:inline;overflow:visible;enable-background:accumulate"
           id="path3795"
           sodipodi:cx="128"
           sodipodi:cy="112"
           sodipodi:rx="16"
           sodipodi:ry="16"
           d="m 144,112 c 0,8.83656 -7.16344,16 -16,16 -8.83656,0 -16,-7.16344 -16,-16 0,-8.83656 7.16344,-16 16,-16 8.83656,0 16,7.16344 16,16 z"
           transform="matrix(1.024677,0,0,1.024677,-3.1586552,59.367718)" />
        <rect
           style="color:#000000;fill:#ffffff;fill-opacity:1;fill-rule:nonzero;stroke:none;stroke-width:2;marker:none;visibility:visible;display:inline;overflow:visible;enable-background:accumulate"
           id="rect3779"
           width="8.120719"
           height="6.4965754"
           x="75.167816"
           y="191.17104"
           transform="matrix(0.97138098,-0.23752681,0.23752681,0.97138098,0,0)" />
      </g>
      <g
         transform="matrix(0.90454601,0,0,0.90454601,12.506917,-4.3212293)"
         id="g3785">
        <path
           sodipodi:type="arc"
           style="color:#000000;fill:#ffffff;fill-opacity:1;fill-rule:nonzero;stroke:#000000;stroke-width:2.66109848;stroke-miterlimit:4;stroke-opacity:1;stroke-dasharray:none;marker:none;visibility:visible;display:inline;overflow:visible;enable-background:accumulate"
           id="path3781"
           sodipodi:cx="100"
           sodipodi:cy="120"
           sodipodi:rx="17.236195"
           sodipodi:ry="29.236195"
           d="m 117.23619,120 c 0,16.1467 -7.7169,29.23619 -17.23619,29.23619 -9.519287,0 -17.236195,-13.08949 -17.236195,-29.23619 0,-16.1467 7.716908,-29.236195 17.236195,-29.236195 9.51929,0 17.23619,13.089495 17.23619,29.236195 z"
           transform="matrix(0.83088015,0,0,0.83088015,26.98508,22.644116)" />
        <path
           transform="matrix(0.29421002,0,0,0.29421002,88.194166,90.334747)"
           d="m 117.23619,120 c 0,16.1467 -7.7169,29.23619 -17.23619,29.23619 -9.519287,0 -17.236195,-13.08949 -17.236195,-29.23619 0,-16.1467 7.716908,-29.236195 17.236195,-29.236195 9.51929,0 17.23619,13.089495 17.23619,29.236195 z"
           sodipodi:ry="29.236195"
           sodipodi:rx="17.236195"
           sodipodi:cy="120"
           sodipodi:cx="100"
           id="path3783"
           style="color:#000000;fill:#000000;fill-opacity:1;fill-rule:nonzero;stroke:none;stroke-width:2;marker:none;visibility:visible;display:inline;overflow:visible;enable-background:accumulate"
           sodipodi:type="arc" />
      </g>
      <g
         transform="matrix(-0.90454601,0,0,0.90454601,243.63927,-4.3212293)"
         id="g3789">
        <path
           transform="matrix(0.83088015,0,0,0.83088015,26.98508,22.644116)"
           d="m 117.23619,120 c 0,16.1467 -7.7169,29.23619 -17.23619,29.23619 -9.519287,0 -17.236195,-13.08949 -17.236195,-29.23619 0,-16.1467 7.716908,-29.236195 17.236195,-29.236195 9.51929,0 17.23619,13.089495 17.23619,29.236195 z"
           sodipodi:ry="29.236195"
           sodipodi:rx="17.236195"
           sodipodi:cy="120"
           sodipodi:cx="100"
           id="path3791"
           style="color:#000000;fill:#ffffff;fill-opacity:1;fill-rule:nonzero;stroke:#000000;stroke-width:2.66109848;stroke-miterlimit:4;stroke-opacity:1;stroke-dasharray:none;marker:none;visibility:visible;display:inline;overflow:visible;enable-background:accumulate"
           sodipodi:type="arc" />
        <path
           sodipodi:type="arc"
           style="color:#000000;fill:#000000;fill-opacity:1;fill-rule:nonzero;stroke:none;stroke-width:2;marker:none;visibility:visible;display:inline;overflow:visible;enable-background:accumulate"
           id="path3793"
           sodipodi:cx="100"
           sodipodi:cy="120"
           sodipodi:rx="17.236195"
           sodipodi:ry="29.236195"
           d="m 117.23619,120 c 0,16.1467 -7.7169,29.23619 -17.23619,29.23619 -9.519287,0 -17.236195,-13.08949 -17.236195,-29.23619 0,-16.1467 7.716908,-29.236195 17.236195,-29.236195 9.51929,0 17.23619,13.089495 17.23619,29.236195 z"
           transform="matrix(0.29421002,0,0,0.29421002,88.194166,90.334747)" />
      </g>
    </g>
  </g>
</svg>
