<?xml version="1.0" encoding="UTF-8" standalone="no"?>
<!-- Created with Inkscape (http://www.inkscape.org/) -->

<svg
   xmlns:dc="http://purl.org/dc/elements/1.1/"
   xmlns:cc="http://creativecommons.org/ns#"
   xmlns:rdf="http://www.w3.org/1999/02/22-rdf-syntax-ns#"
   xmlns:svg="http://www.w3.org/2000/svg"
   xmlns="http://www.w3.org/2000/svg"
   xmlns:sodipodi="http://sodipodi.sourceforge.net/DTD/sodipodi-0.dtd"
   xmlns:inkscape="http://www.inkscape.org/namespaces/inkscape"
   width="256"
   height="256"
   id="svg4012"
   version="1.1"
   inkscape:version="0.48.4 r9939"
   sodipodi:docname="baikinman.svg">
  <defs
     id="defs4014" />
  <sodipodi:namedview
     id="base"
     pagecolor="#ffffff"
     bordercolor="#666666"
     borderopacity="1.0"
     inkscape:pageopacity="0.0"
     inkscape:pageshadow="2"
     inkscape:zoom="1.7285156"
     inkscape:cx="53.904106"
     inkscape:cy="221.93264"
     inkscape:document-units="px"
     inkscape:current-layer="layer4"
     showgrid="true"
     borderlayer="true"
     inkscape:window-width="1918"
     inkscape:window-height="1059"
     inkscape:window-x="1366"
     inkscape:window-y="19"
     inkscape:window-maximized="1">
    <inkscape:grid
       type="xygrid"
       id="grid4020"
       empspacing="4"
       visible="true"
       enabled="true"
       snapvisiblegridlinesonly="true"
       spacingx="2px"
       spacingy="2px"
       dotted="false" />
  </sodipodi:namedview>
  <metadata
     id="metadata4017">
    <rdf:RDF>
      <cc:Work
         rdf:about="">
        <dc:format>image/svg+xml</dc:format>
        <dc:type
           rdf:resource="http://purl.org/dc/dcmitype/StillImage" />
        <dc:title></dc:title>
      </cc:Work>
    </rdf:RDF>
  </metadata>
  <g
     inkscape:groupmode="layer"
     id="layer4"
     inkscape:label="anpanman"
     style="display:inline">
    <path
       style="fill:#bb501f;fill-opacity:1;stroke:#000000;stroke-width:2.50000000000000000;stroke-linecap:butt;stroke-linejoin:miter;stroke-miterlimit:4;stroke-opacity:1;stroke-dasharray:none"
       d="m 10,176 c 38,80 198,80 236,0 38,-16 32,-32 6,-44 C 240,-28 16,-28 4,132 c -26,12 -32,28 6,44 z"
       id="path3890"
       inkscape:connector-curvature="0"
       sodipodi:nodetypes="ccccc" />
    <g
       id="g3903"
       transform="matrix(0.77147638,0,0,0.77147638,20.113613,32.666094)"
       style="stroke-width:2.5;stroke-miterlimit:4;stroke-dasharray:none">
      <path
         transform="matrix(1.1558412,0,0,1.2045415,-19.947679,-11.045248)"
         d="m 128,68 a 21,20 0 1 1 -42,0 21,20 0 1 1 42,0 z"
         sodipodi:ry="20"
         sodipodi:rx="21"
         sodipodi:cy="68"
         sodipodi:cx="107"
         id="path3889"
         style="color:#000000;fill:#ffffff;fill-opacity:1;fill-rule:nonzero;stroke:#000000;stroke-width:2.11875153;stroke-miterlimit:4;stroke-opacity:1;stroke-dasharray:none;marker:none;visibility:visible;display:inline;overflow:visible;enable-background:accumulate"
         sodipodi:type="arc" />
      <g
         transform="matrix(1.1499483,0,0,1.130239,-18.822041,-6.0581945)"
         id="g4687"
         style="stroke-width:2.52170348;stroke-miterlimit:4;stroke-dasharray:none">
        <path
           sodipodi:type="arc"
           style="color:#000000;fill:#000000;fill-opacity:1;fill-rule:nonzero;stroke:none;stroke-width:3.13527322;marker:none;visibility:visible;display:inline;overflow:visible;enable-background:accumulate"
           id="path4669"
           sodipodi:cx="101"
           sodipodi:cy="76"
           sodipodi:rx="9"
           sodipodi:ry="16"
           d="m 110,76 a 9,16 0 1 1 -18,0 9,16 0 1 1 18,0 z"
           transform="matrix(1.0418889,0,0,0.62089173,10.915796,22.305031)" />
      </g>
    </g>
    <g
       id="g4652"
       transform="matrix(0.91064886,0,0,0.8816758,14.781014,22.938787)"
       style="fill:#846e9c;fill-opacity:1;stroke-width:2.79003763;stroke-miterlimit:4;stroke-dasharray:none">
      <path
         transform="matrix(0.3708106,0,0,0.35710978,76.864062,55.561373)"
         d="m 166,128 a 38,38 0 1 1 -76,0 38,38 0 1 1 76,0 z"
         sodipodi:ry="38"
         sodipodi:rx="38"
         sodipodi:cy="128"
         sodipodi:cx="128"
         id="path4644"
         style="color:#000000;fill:#c71616;fill-opacity:1;fill-rule:nonzero;stroke:#000000;stroke-width:7.66713524;stroke-miterlimit:4;stroke-opacity:1;stroke-dasharray:none;marker:none;visibility:visible;display:inline;overflow:visible;enable-background:accumulate"
         sodipodi:type="arc" />
    </g>
    <g
       style="stroke-width:2.5;stroke-miterlimit:4;stroke-dasharray:none"
       transform="matrix(-0.77147638,0,0,0.77147638,235.64863,32.768365)"
       id="g3873">
      <path
         sodipodi:type="arc"
         style="color:#000000;fill:#ffffff;fill-opacity:1;fill-rule:nonzero;stroke:#000000;stroke-width:2.11875153;stroke-miterlimit:4;stroke-opacity:1;stroke-dasharray:none;marker:none;visibility:visible;display:inline;overflow:visible;enable-background:accumulate"
         id="path3875"
         sodipodi:cx="107"
         sodipodi:cy="68"
         sodipodi:rx="21"
         sodipodi:ry="20"
         d="m 128,68 a 21,20 0 1 1 -42,0 21,20 0 1 1 42,0 z"
         transform="matrix(1.1558412,0,0,1.2045415,-19.947679,-11.045248)" />
      <g
         style="stroke-width:2.52170348;stroke-miterlimit:4;stroke-dasharray:none"
         id="g3877"
         transform="matrix(1.1499483,0,0,1.130239,-18.822041,-6.0581945)">
        <path
           transform="matrix(1.0418889,0,0,0.62089173,10.915796,22.305031)"
           d="m 110,76 a 9,16 0 1 1 -18,0 9,16 0 1 1 18,0 z"
           sodipodi:ry="16"
           sodipodi:rx="9"
           sodipodi:cy="76"
           sodipodi:cx="101"
           id="path3879"
           style="color:#000000;fill:#000000;fill-opacity:1;fill-rule:nonzero;stroke:none;stroke-width:3.13527322;marker:none;visibility:visible;display:inline;overflow:visible;enable-background:accumulate"
           sodipodi:type="arc" />
      </g>
    </g>
    <g
       style="fill:#e8390c;fill-opacity:1;stroke:none"
       transform="matrix(0.81057156,0,0,0.83911694,-67.547217,36.674772)"
       id="g3881">
      <path
         sodipodi:type="arc"
         style="color:#000000;fill:#e8390c;fill-opacity:1;fill-rule:nonzero;stroke:none;stroke-width:7.66713524;marker:none;visibility:visible;display:inline;overflow:visible;enable-background:accumulate"
         id="path3883"
         sodipodi:cx="128"
         sodipodi:cy="128"
         sodipodi:rx="38"
         sodipodi:ry="38"
         d="m 166,128 a 38,38 0 1 1 -76,0 38,38 0 1 1 76,0 z"
         transform="matrix(0.3708106,0,0,0.35710978,76.864062,55.561373)" />
    </g>
    <g
       id="g3885"
       transform="matrix(0.81057156,0,0,0.83911694,124.45278,36.674772)"
       style="fill:#e8390c;fill-opacity:1;stroke:none">
      <path
         transform="matrix(0.3708106,0,0,0.35710978,76.864062,55.561373)"
         d="m 166,128 a 38,38 0 1 1 -76,0 38,38 0 1 1 76,0 z"
         sodipodi:ry="38"
         sodipodi:rx="38"
         sodipodi:cy="128"
         sodipodi:cx="128"
         id="path3887"
         style="color:#000000;fill:#e8390c;fill-opacity:1;fill-rule:nonzero;stroke:none;stroke-width:7.66713524;marker:none;visibility:visible;display:inline;overflow:visible;enable-background:accumulate"
         sodipodi:type="arc" />
    </g>
    <path
       style="fill:none;stroke:#000000;stroke-width:2.5;stroke-linecap:round;stroke-linejoin:round;stroke-miterlimit:4;stroke-opacity:1;stroke-dasharray:none"
       d="M 46,76 C 64,40 100,10 120,66"
       id="path3892"
       inkscape:connector-curvature="0"
       sodipodi:nodetypes="cc" />
    <path
       sodipodi:nodetypes="cc"
       inkscape:connector-curvature="0"
       id="path3894"
       d="M 210,76 C 192,40 156,10 136,66"
       style="fill:none;stroke:#000000;stroke-width:2.5;stroke-linecap:round;stroke-linejoin:round;stroke-miterlimit:4;stroke-opacity:1;stroke-dasharray:none" />
    <path
       style="fill:none;stroke:#000000;stroke-width:2.5;stroke-linecap:round;stroke-linejoin:round;stroke-miterlimit:4;stroke-opacity:1;stroke-dasharray:none"
       d="m 32,146 c -4,4 -4,10 0,12 4,2 12,-4 24,-4 12,0 20,10 36,10 16,0 20,-10 36,-10 16,0 20,10 36,10 16,0 24,-10 36,-10 12,0 20,6 24,4 4,-2 4,-8 0,-12"
       id="path3896"
       inkscape:connector-curvature="0"
       sodipodi:nodetypes="czzzzzzzc" />
  </g>
</svg>
