<?xml version="1.0" encoding="UTF-8" standalone="no"?>
<!-- Created with Inkscape (http://www.inkscape.org/) -->

<svg
   xmlns:dc="http://purl.org/dc/elements/1.1/"
   xmlns:cc="http://creativecommons.org/ns#"
   xmlns:rdf="http://www.w3.org/1999/02/22-rdf-syntax-ns#"
   xmlns:svg="http://www.w3.org/2000/svg"
   xmlns="http://www.w3.org/2000/svg"
   xmlns:sodipodi="http://sodipodi.sourceforge.net/DTD/sodipodi-0.dtd"
   xmlns:inkscape="http://www.inkscape.org/namespaces/inkscape"
   width="256"
   height="256"
   id="svg4012"
   version="1.1"
   inkscape:version="0.48.4 r9939"
   sodipodi:docname="komusubiman.svg">
  <defs
     id="defs4014" />
  <sodipodi:namedview
     id="base"
     pagecolor="#ffffff"
     bordercolor="#666666"
     borderopacity="1.0"
     inkscape:pageopacity="0.0"
     inkscape:pageshadow="2"
     inkscape:zoom="1.7285156"
     inkscape:cx="107.61708"
     inkscape:cy="144.719"
     inkscape:document-units="px"
     inkscape:current-layer="g4691"
     showgrid="false"
     borderlayer="true"
     inkscape:window-width="1364"
     inkscape:window-height="747"
     inkscape:window-x="0"
     inkscape:window-y="19"
     inkscape:window-maximized="1"
     inkscape:snap-grids="true">
    <inkscape:grid
       type="xygrid"
       id="grid4020"
       empspacing="4"
       visible="true"
       enabled="true"
       snapvisiblegridlinesonly="true"
       spacingx="32px"
       spacingy="32px"
       dotted="false"
       color="#cc00ff"
       opacity="0.69411765"
       empcolor="#be00ff"
       empopacity="0.75294118" />
    <inkscape:grid
       type="xygrid"
       id="grid3774"
       empspacing="4"
       visible="true"
       enabled="true"
       snapvisiblegridlinesonly="true"
       spacingx="2px"
       spacingy="2px" />
  </sodipodi:namedview>
  <metadata
     id="metadata4017">
    <rdf:RDF>
      <cc:Work
         rdf:about="">
        <dc:format>image/svg+xml</dc:format>
        <dc:type
           rdf:resource="http://purl.org/dc/dcmitype/StillImage" />
        <dc:title />
      </cc:Work>
    </rdf:RDF>
  </metadata>
  <g
     inkscape:groupmode="layer"
     id="layer4"
     inkscape:label="oraman">
    <g
       id="g4691">
      <path
         transform="matrix(1.1205335,0,0,1.0158696,-50.784763,23.162576)"
         style="color:#000000;fill:#ffffff;fill-opacity:1;fill-rule:nonzero;stroke:#000000;stroke-width:1.87455674;stroke-miterlimit:4;stroke-opacity:1;marker:none;visibility:visible;display:inline;overflow:visible;enable-background:accumulate;stroke-dasharray:none"
         d="m 159.55325,197.7 c -128.510213,0 -128.510213,-189.0006315 0,-189.0006315 128.51022,0 128.51022,189.0006315 0,189.0006315 z"
         id="path4681"
         inkscape:connector-curvature="0"
         sodipodi:nodetypes="ccc" />
      <g
         id="g3799">
        <path
           sodipodi:type="arc"
           style="color:#000000;fill:#000000;fill-opacity:1;fill-rule:nonzero;stroke:none;stroke-width:2;marker:none;visibility:visible;display:inline;overflow:visible;enable-background:accumulate"
           id="path3776"
           sodipodi:cx="101"
           sodipodi:cy="76"
           sodipodi:rx="9"
           sodipodi:ry="16"
           d="m 110,76 a 9,16 0 1 1 -18,0 9,16 0 1 1 18,0 z"
           transform="matrix(0.77478613,0,0,0.71887025,24.36091,30.156479)" />
        <path
           sodipodi:nodetypes="cc"
           inkscape:connector-curvature="0"
           id="path3788"
           d="M 118,72 C 118,48 86,48 86,72"
           style="fill:none;stroke:#000000;stroke-width:2;stroke-linecap:round;stroke-linejoin:bevel;stroke-miterlimit:4;stroke-opacity:1;stroke-dasharray:none" />
      </g>
      <path
         style="fill:#000000;fill-opacity:1;stroke:none"
         d="m 22,108 12,0 24,26 -24,26 -8,0 c -6,-14 -8,-38 -4,-52 z"
         id="path3783"
         inkscape:connector-curvature="0"
         sodipodi:nodetypes="cccccc" />
      <path
         sodipodi:type="arc"
         style="fill:#d38d5f;fill-opacity:1;stroke:none"
         id="path3785"
         sodipodi:cx="84"
         sodipodi:cy="160"
         sodipodi:rx="10"
         sodipodi:ry="10"
         d="m 94,160 a 10,10 0 1 1 -20,0 10,10 0 1 1 20,0 z"
         transform="matrix(0.7852313,0,0,0.7852313,14.068309,10.309828)" />
      <path
         sodipodi:nodetypes="cccccc"
         inkscape:connector-curvature="0"
         id="path3787"
         d="m 233.91896,108 -12,0 -24,26 24,26 8,0 c 6,-14 8,-38 4,-52 z"
         style="fill:#000000;fill-opacity:1;stroke:none" />
      <path
         transform="matrix(0.7852313,0,0,0.7852313,110.06831,10.309828)"
         d="m 94,160 a 10,10 0 1 1 -20,0 10,10 0 1 1 20,0 z"
         sodipodi:ry="10"
         sodipodi:rx="10"
         sodipodi:cy="160"
         sodipodi:cx="84"
         id="path3789"
         style="fill:#d38d5f;fill-opacity:1;stroke:none"
         sodipodi:type="arc" />
      <path
         sodipodi:nodetypes="cc"
         inkscape:connector-curvature="0"
         id="path3791"
         d="m 176,162 c -16,16 -80,16 -96,0"
         style="fill:none;stroke:#000000;stroke-width:3;stroke-linecap:round;stroke-linejoin:round;stroke-miterlimit:4;stroke-opacity:1;stroke-dasharray:none" />
      <path
         sodipodi:type="arc"
         style="fill:#ff7e49;fill-opacity:1;stroke:#000000;stroke-width:2;stroke-miterlimit:4;stroke-opacity:1;stroke-dasharray:none"
         id="path3793"
         sodipodi:cx="128"
         sodipodi:cy="128"
         sodipodi:rx="24"
         sodipodi:ry="20"
         d="m 152,128 a 24,20 0 1 1 -48,0 24,20 0 1 1 48,0 z"
         transform="translate(0,-6)" />
      <rect
         style="fill:#ffffff;fill-opacity:1;stroke:none"
         id="rect3795"
         width="9.6226263"
         height="8.0188551"
         x="102.52108"
         y="126.78075"
         transform="matrix(0.99434898,-0.10616079,0.10616079,0.99434898,0,0)" />
      <g
         id="g3803"
         transform="matrix(-1,0,0,1,256,0)">
        <path
           transform="matrix(0.77478613,0,0,0.71887025,24.36091,30.156479)"
           d="m 110,76 c 0,8.836556 -4.02944,16 -9,16 -4.970563,0 -9,-7.163444 -9,-16 0,-8.836556 4.029437,-16 9,-16 4.97056,0 9,7.163444 9,16 z"
           sodipodi:ry="16"
           sodipodi:rx="9"
           sodipodi:cy="76"
           sodipodi:cx="101"
           id="path3805"
           style="color:#000000;fill:#000000;fill-opacity:1;fill-rule:nonzero;stroke:none;stroke-width:2;marker:none;visibility:visible;display:inline;overflow:visible;enable-background:accumulate"
           sodipodi:type="arc" />
        <path
           style="fill:none;stroke:#000000;stroke-width:2;stroke-linecap:round;stroke-linejoin:bevel;stroke-miterlimit:4;stroke-opacity:1;stroke-dasharray:none"
           d="M 118,72 C 118,48 86,48 86,72"
           id="path3807"
           inkscape:connector-curvature="0"
           sodipodi:nodetypes="cc" />
      </g>
    </g>
  </g>
</svg>
