<?xml version="1.0" encoding="UTF-8" standalone="no"?>
<!-- Created with Inkscape (http://www.inkscape.org/) -->

<svg
   xmlns:dc="http://purl.org/dc/elements/1.1/"
   xmlns:cc="http://creativecommons.org/ns#"
   xmlns:rdf="http://www.w3.org/1999/02/22-rdf-syntax-ns#"
   xmlns:svg="http://www.w3.org/2000/svg"
   xmlns="http://www.w3.org/2000/svg"
   xmlns:sodipodi="http://sodipodi.sourceforge.net/DTD/sodipodi-0.dtd"
   xmlns:inkscape="http://www.inkscape.org/namespaces/inkscape"
   width="256"
   height="256"
   id="svg4012"
   version="1.1"
   inkscape:version="0.48.4 r9939"
   sodipodi:docname="oraman.svg">
  <defs
     id="defs4014" />
  <sodipodi:namedview
     id="base"
     pagecolor="#ffffff"
     bordercolor="#666666"
     borderopacity="1.0"
     inkscape:pageopacity="0.0"
     inkscape:pageshadow="2"
     inkscape:zoom="1.7285156"
     inkscape:cx="129.41807"
     inkscape:cy="117.96441"
     inkscape:document-units="px"
     inkscape:current-layer="layer4"
     showgrid="false"
     borderlayer="true"
     inkscape:window-width="1364"
     inkscape:window-height="747"
     inkscape:window-x="0"
     inkscape:window-y="19"
     inkscape:window-maximized="1"
     inkscape:snap-grids="true">
    <inkscape:grid
       type="xygrid"
       id="grid4020"
       empspacing="4"
       visible="true"
       enabled="true"
       snapvisiblegridlinesonly="true"
       spacingx="32px"
       spacingy="32px"
       dotted="false"
       color="#cc00ff"
       opacity="0.69411765"
       empcolor="#be00ff"
       empopacity="0.75294118" />
    <inkscape:grid
       type="xygrid"
       id="grid3774"
       empspacing="4"
       visible="true"
       enabled="true"
       snapvisiblegridlinesonly="true"
       spacingx="2px"
       spacingy="2px" />
  </sodipodi:namedview>
  <metadata
     id="metadata4017">
    <rdf:RDF>
      <cc:Work
         rdf:about="">
        <dc:format>image/svg+xml</dc:format>
        <dc:type
           rdf:resource="http://purl.org/dc/dcmitype/StillImage" />
        <dc:title />
      </cc:Work>
    </rdf:RDF>
  </metadata>
  <g
     inkscape:groupmode="layer"
     id="layer4"
     inkscape:label="oraman">
    <g
       id="g4691"
       transform="matrix(0.85040004,0,0,0.85040004,19.148795,19.485394)">
      <path
         transform="matrix(1.1205335,0,0,1.0158696,-50.784763,23.162576)"
         style="color:#000000;fill:#ffffff;fill-opacity:1;fill-rule:nonzero;stroke:#000000;stroke-width:2.81183505;stroke-miterlimit:4;stroke-opacity:1;marker:none;visibility:visible;display:inline;overflow:visible;enable-background:accumulate"
         d="m 223.80836,142.57482 7.13945,78.75026 c -42.83673,5.90627 -99.95238,5.90627 -142.789122,0 l 7.139456,-78.75026 c -64.255107,0 -64.255107,-157.500531 64.255106,-157.500531 128.51022,0 128.51022,157.500531 64.25511,157.500531 z"
         id="path4681"
         inkscape:connector-curvature="0"
         sodipodi:nodetypes="cccccc" />
      <path
         transform="matrix(2.8522381,0,0,2.5084945,-194.13273,-99.918587)"
         d="m 110,76 c 0,8.836556 -4.02944,16 -9,16 -4.970563,0 -9,-7.163444 -9,-16 0,-8.836556 4.029437,-16 9,-16 4.97056,0 9,7.163444 9,16 z"
         sodipodi:ry="16"
         sodipodi:rx="9"
         sodipodi:cy="76"
         sodipodi:cx="101"
         id="path4669"
         style="color:#000000;fill:#000000;fill-opacity:1;fill-rule:nonzero;stroke:none;stroke-width:2;marker:none;visibility:visible;display:inline;overflow:visible;enable-background:accumulate"
         sodipodi:type="arc" />
      <path
         sodipodi:nodetypes="cc"
         inkscape:connector-curvature="0"
         id="path4675"
         d="m 64,56 c 8,-32 56,-16 56,0"
         style="fill:none;stroke:#000000;stroke-width:3;stroke-linecap:round;stroke-linejoin:bevel;stroke-miterlimit:4;stroke-opacity:1;stroke-dasharray:none" />
      <path
         sodipodi:type="arc"
         style="color:#000000;fill:#000000;fill-opacity:1;fill-rule:nonzero;stroke:none;stroke-width:2;marker:none;visibility:visible;display:inline;overflow:visible;enable-background:accumulate"
         id="path3772"
         sodipodi:cx="101"
         sodipodi:cy="76"
         sodipodi:rx="9"
         sodipodi:ry="16"
         d="m 110,76 c 0,8.836556 -4.02944,16 -9,16 -4.970563,0 -9,-7.163444 -9,-16 0,-8.836556 4.029437,-16 9,-16 4.97056,0 9,7.163444 9,16 z"
         transform="matrix(0.72687579,0,0,0.5433959,46.046935,104.40731)" />
      <path
         transform="matrix(0.71234014,0,0,0.54339589,63.650771,104.54768)"
         d="m 110,76 c 0,8.836556 -4.02944,16 -9,16 -4.970563,0 -9,-7.163444 -9,-16 0,-8.836556 4.029437,-16 9,-16 4.97056,0 9,7.163444 9,16 z"
         sodipodi:ry="16"
         sodipodi:rx="9"
         sodipodi:cy="76"
         sodipodi:cx="101"
         id="path3776"
         style="color:#000000;fill:#000000;fill-opacity:1;fill-rule:nonzero;stroke:none;stroke-width:2;marker:none;visibility:visible;display:inline;overflow:visible;enable-background:accumulate"
         sodipodi:type="arc" />
      <path
         style="fill:none;stroke:#000000;stroke-width:3;stroke-linecap:round;stroke-linejoin:bevel;stroke-miterlimit:4;stroke-opacity:1;stroke-dasharray:none"
         d="m 32,136 c 0,24 40,24 56,8"
         id="path3782"
         inkscape:connector-curvature="0"
         sodipodi:nodetypes="cc" />
      <path
         sodipodi:nodetypes="cc"
         inkscape:connector-curvature="0"
         id="path3784"
         d="m 224,136 c 0,24 -40,24 -56,8"
         style="fill:none;stroke:#000000;stroke-width:3;stroke-linecap:round;stroke-linejoin:bevel;stroke-miterlimit:4;stroke-opacity:1;stroke-dasharray:none" />
      <path
         sodipodi:type="arc"
         style="color:#000000;fill:#000000;fill-opacity:1;fill-rule:nonzero;stroke:none;stroke-width:2;marker:none;visibility:visible;display:inline;overflow:visible;enable-background:accumulate"
         id="path3786"
         sodipodi:cx="101"
         sodipodi:cy="76"
         sodipodi:rx="9"
         sodipodi:ry="16"
         d="m 110,76 c 0,8.836556 -4.02944,16 -9,16 -4.970563,0 -9,-7.163444 -9,-16 0,-8.836556 4.029437,-16 9,-16 4.97056,0 9,7.163444 9,16 z"
         transform="matrix(2.8522381,0,0,2.5084945,-127.04308,-102.37309)" />
      <path
         style="fill:none;stroke:#000000;stroke-width:3;stroke-linecap:round;stroke-linejoin:bevel;stroke-miterlimit:4;stroke-opacity:1;stroke-dasharray:none"
         d="M 192,56 C 184,24 136,40 136,56"
         id="path3788"
         inkscape:connector-curvature="0"
         sodipodi:nodetypes="cc" />
      <path
         style="fill:none;stroke:#000000;stroke-width:3;stroke-linecap:round;stroke-linejoin:round;stroke-miterlimit:4;stroke-opacity:1;stroke-dasharray:none"
         d="m 80,184 c -16,-8 -16,32 0,40 16,8 80,8 96,0 16,-8 16,-48 0,-40 -16,8 -80,8 -96,0 z"
         id="path3790"
         inkscape:connector-curvature="0"
         sodipodi:nodetypes="ccccc" />
      <path
         style="fill:none;stroke:#000000;stroke-width:3;stroke-linecap:butt;stroke-linejoin:miter;stroke-miterlimit:4;stroke-opacity:1;stroke-dasharray:none"
         d="m 96,188 0,40"
         id="path3792"
         inkscape:connector-curvature="0" />
      <path
         inkscape:connector-curvature="0"
         id="path3796"
         d="m 160,188 0,40"
         style="fill:none;stroke:#000000;stroke-width:3;stroke-linecap:butt;stroke-linejoin:miter;stroke-miterlimit:4;stroke-opacity:1;stroke-dasharray:none" />
      <path
         inkscape:connector-curvature="0"
         id="path3802"
         d="m 128,190 0,40"
         style="fill:none;stroke:#000000;stroke-width:3;stroke-linecap:butt;stroke-linejoin:miter;stroke-miterlimit:4;stroke-opacity:1;stroke-dasharray:none"
         sodipodi:nodetypes="cc" />
    </g>
  </g>
</svg>
