<?xml version="1.0" encoding="UTF-8" standalone="no"?>
<!-- Created with Inkscape (http://www.inkscape.org/) -->

<svg
   xmlns:dc="http://purl.org/dc/elements/1.1/"
   xmlns:cc="http://creativecommons.org/ns#"
   xmlns:rdf="http://www.w3.org/1999/02/22-rdf-syntax-ns#"
   xmlns:svg="http://www.w3.org/2000/svg"
   xmlns="http://www.w3.org/2000/svg"
   xmlns:sodipodi="http://sodipodi.sourceforge.net/DTD/sodipodi-0.dtd"
   xmlns:inkscape="http://www.inkscape.org/namespaces/inkscape"
   width="256"
   height="256"
   id="svg4012"
   version="1.1"
   inkscape:version="0.48.4 r9939"
   sodipodi:docname="tendonman.svg">
  <defs
     id="defs4014" />
  <sodipodi:namedview
     id="base"
     pagecolor="#ffffff"
     bordercolor="#66b317"
     borderopacity="1"
     inkscape:pageopacity="0.0"
     inkscape:pageshadow="2"
     inkscape:zoom="1.7285156"
     inkscape:cx="99.761113"
     inkscape:cy="162.47983"
     inkscape:document-units="px"
     inkscape:current-layer="g4691"
     showgrid="false"
     borderlayer="true"
     inkscape:window-width="1364"
     inkscape:window-height="747"
     inkscape:window-x="0"
     inkscape:window-y="19"
     inkscape:window-maximized="1"
     inkscape:snap-grids="true">
    <inkscape:grid
       type="xygrid"
       id="grid4020"
       empspacing="4"
       visible="true"
       enabled="true"
       snapvisiblegridlinesonly="true"
       spacingx="32px"
       spacingy="32px"
       dotted="false"
       color="#cc00ff"
       opacity="0.69411765"
       empcolor="#be00ff"
       empopacity="0.75294118" />
    <inkscape:grid
       type="xygrid"
       id="grid3774"
       empspacing="4"
       visible="true"
       enabled="true"
       snapvisiblegridlinesonly="true"
       spacingx="2px"
       spacingy="2px" />
  </sodipodi:namedview>
  <metadata
     id="metadata4017">
    <rdf:RDF>
      <cc:Work
         rdf:about="">
        <dc:format>image/svg+xml</dc:format>
        <dc:type
           rdf:resource="http://purl.org/dc/dcmitype/StillImage" />
        <dc:title />
      </cc:Work>
    </rdf:RDF>
  </metadata>
  <g
     inkscape:groupmode="layer"
     id="layer4"
     inkscape:label="oraman">
    <g
       id="g4691">
      <path
         style="color:#000000;fill:#d2ffff;fill-opacity:1;fill-rule:nonzero;stroke:#000000;stroke-width:2;stroke-linecap:butt;stroke-linejoin:miter;stroke-miterlimit:4;stroke-opacity:1;stroke-dasharray:none;stroke-dashoffset:0;marker:none;visibility:visible;display:inline;overflow:visible;enable-background:accumulate"
         d="M 104,46 96,22 c 8,-4 56,-4 64,0 l -8,24 z"
         id="path3800"
         inkscape:connector-curvature="0"
         sodipodi:nodetypes="ccccc" />
      <path
         style="color:#000000;fill:#d2ffff;fill-opacity:1;fill-rule:nonzero;stroke:#000000;stroke-width:2;stroke-linecap:butt;stroke-linejoin:miter;stroke-miterlimit:4;stroke-opacity:1;stroke-dasharray:none;stroke-dashoffset:0;marker:none;visibility:visible;display:inline;overflow:visible;enable-background:accumulate"
         d="m 40,92 c 0,-72 176,-72 176,0 -24,8 -152,8 -176,0 z"
         id="path3781"
         inkscape:connector-curvature="0"
         sodipodi:nodetypes="ccc" />
      <path
         sodipodi:nodetypes="ccccc"
         inkscape:connector-curvature="0"
         id="path3816"
         d="m 198,94 24,-26 c 8,-8 14,-2 6,6 10,-6 14,2 4,8 12,-6 16,2 4,10"
         style="fill:#ff8000;fill-opacity:1;stroke:#ff3000;stroke-width:1px;stroke-linecap:round;stroke-linejoin:round;stroke-opacity:1" />
      <path
         style="fill:#ff8000;fill-opacity:1;stroke:#ff3000;stroke-width:1px;stroke-linecap:round;stroke-linejoin:round;stroke-opacity:1"
         d="m 176,92 24,-26 c 8,-8 14,-2 6,6 10,-6 14,2 4,8 12,-6 16,2 4,10"
         id="path3812"
         inkscape:connector-curvature="0"
         sodipodi:nodetypes="ccccc" />
      <path
         style="color:#000000;fill:#d2ffff;fill-opacity:1;fill-rule:nonzero;stroke:#000000;stroke-width:1.83518016;stroke-miterlimit:4;stroke-opacity:1;stroke-dasharray:none;marker:none;visibility:visible;display:inline;overflow:visible;enable-background:accumulate"
         d="m 128,234.31291 c -80.058864,0 -96,-42.31291 -96.070644,-121.15475 3e-6,-6.73082 -16.011766,-6.73082 -16.011769,-20.192456 16.011776,-6.730819 208.153053,-6.730819 224.164823,0 0,13.461636 -16.01177,13.461636 -16.01177,20.192456 C 224,192 208.05886,234.31291 128,234.31291 z"
         id="path4681"
         inkscape:connector-curvature="0"
         sodipodi:nodetypes="cccccc" />
      <path
         sodipodi:type="arc"
         style="color:#000000;fill:#ffaaaa;fill-opacity:1;fill-rule:nonzero;stroke:none;marker:none;visibility:visible;display:inline;overflow:visible;enable-background:accumulate"
         id="path3785"
         sodipodi:cx="84"
         sodipodi:cy="160"
         sodipodi:rx="10"
         sodipodi:ry="10"
         d="m 94,160 a 10,10 0 1 1 -20,0 10,10 0 1 1 20,0 z"
         transform="matrix(1.0744968,0,0,1.0744968,-15.122652,-10.865314)" />
      <path
         transform="matrix(1.0889601,0,0,1.0889601,89.592377,-13.324071)"
         d="m 94,160 a 10,10 0 1 1 -20,0 10,10 0 1 1 20,0 z"
         sodipodi:ry="10"
         sodipodi:rx="10"
         sodipodi:cy="160"
         sodipodi:cx="84"
         id="path3789"
         style="fill:#ffaaaa;fill-opacity:1;stroke:none"
         sodipodi:type="arc" />
      <path
         sodipodi:nodetypes="cc"
         inkscape:connector-curvature="0"
         id="path3791"
         d="m 176,180 c -16,16 -80,16 -96,0"
         style="fill:none;stroke:#000000;stroke-width:2.60011482;stroke-linecap:round;stroke-linejoin:round;stroke-miterlimit:4;stroke-opacity:1;stroke-dasharray:none" />
      <path
         sodipodi:type="arc"
         style="fill:#ff7e49;fill-opacity:1;stroke:#000000;stroke-width:2;stroke-miterlimit:4;stroke-opacity:1;stroke-dasharray:none"
         id="path3793"
         sodipodi:cx="128"
         sodipodi:cy="128"
         sodipodi:rx="24"
         sodipodi:ry="20"
         d="m 152,128 a 24,20 0 1 1 -48,0 24,20 0 1 1 48,0 z"
         transform="matrix(0.50688497,0,0,0.57644068,62.79868,83.971525)" />
      <g
         id="g3771"
         transform="translate(-4,14)">
        <path
           transform="matrix(0.77879694,0,0,0.77879694,42.523452,30.765643)"
           d="m 96,108 c 0,8.83656 -7.163444,16 -16,16 -8.836556,0 -16,-7.16344 -16,-16 0,-8.836556 7.163444,-16 16,-16 8.836556,0 16,7.163444 16,16 z"
           sodipodi:ry="16"
           sodipodi:rx="16"
           sodipodi:cy="108"
           sodipodi:cx="80"
           id="path3767"
           style="fill:#ffffff;fill-opacity:1;stroke:#000000;stroke-width:2;stroke-miterlimit:4;stroke-opacity:1;stroke-dasharray:none"
           sodipodi:type="arc" />
        <path
           sodipodi:type="arc"
           style="fill:#000000;fill-opacity:1;stroke:none"
           id="path3769"
           sodipodi:cx="80"
           sodipodi:cy="108"
           sodipodi:rx="16"
           sodipodi:ry="16"
           d="m 96,108 c 0,8.83656 -7.163444,16 -16,16 -8.836556,0 -16,-7.16344 -16,-16 0,-8.836556 7.163444,-16 16,-16 8.836556,0 16,7.163444 16,16 z"
           transform="matrix(0.35437645,0,0,0.35437645,79.857488,77.536824)" />
      </g>
      <g
         id="g3775"
         transform="matrix(-1,0,0,1,261.65441,14)">
        <path
           sodipodi:type="arc"
           style="fill:#ffffff;fill-opacity:1;stroke:#000000;stroke-width:2;stroke-miterlimit:4;stroke-opacity:1;stroke-dasharray:none"
           id="path3777"
           sodipodi:cx="80"
           sodipodi:cy="108"
           sodipodi:rx="16"
           sodipodi:ry="16"
           d="m 96,108 c 0,8.83656 -7.163444,16 -16,16 -8.836556,0 -16,-7.16344 -16,-16 0,-8.836556 7.163444,-16 16,-16 8.836556,0 16,7.163444 16,16 z"
           transform="matrix(0.77879694,0,0,0.77879694,42.523452,30.765643)" />
        <path
           transform="matrix(0.35437645,0,0,0.35437645,79.857488,77.536824)"
           d="m 96,108 c 0,8.83656 -7.163444,16 -16,16 -8.836556,0 -16,-7.16344 -16,-16 0,-8.836556 7.163444,-16 16,-16 8.836556,0 16,7.163444 16,16 z"
           sodipodi:ry="16"
           sodipodi:rx="16"
           sodipodi:cy="108"
           sodipodi:cx="80"
           id="path3779"
           style="fill:#000000;fill-opacity:1;stroke:none"
           sodipodi:type="arc" />
      </g>
      <path
         style="fill:none;stroke:#000000;stroke-width:6;stroke-linecap:square;stroke-linejoin:miter;stroke-miterlimit:4;stroke-opacity:1;stroke-dasharray:none"
         d="m 70,112 c 4,-8 24,-20 40,-16"
         id="path3808"
         inkscape:connector-curvature="0"
         sodipodi:nodetypes="cc" />
      <path
         sodipodi:nodetypes="cc"
         inkscape:connector-curvature="0"
         id="path3810"
         d="M 186,112 C 182,104 162,92 146,96"
         style="fill:none;stroke:#000000;stroke-width:6;stroke-linecap:square;stroke-linejoin:miter;stroke-miterlimit:4;stroke-opacity:1;stroke-dasharray:none" />
    </g>
  </g>
</svg>
